<svg width="25" height="24" viewBox="0 0 25 24" fill="none" xmlns="http://www.w3.org/2000/svg">
<path d="M4.85264 1.15H15.8928C16.3622 1.15 16.7428 1.53056 16.7428 2C16.7428 2.46944 16.3622 2.85 15.8928 2.85H5.85264C5.21751 2.85 4.70264 3.36487 4.70264 4V16C4.70264 16.4688 4.31939 16.85 3.84929 16.85C3.3792 16.85 2.99595 16.4688 2.99595 16V3C2.99595 1.98331 3.83133 1.15 4.85264 1.15ZM8.86601 5.15H19.9028C20.9241 5.15 21.7595 5.98331 21.7595 7V21C21.7595 22.0167 20.9241 22.85 19.9028 22.85H8.86601C7.84471 22.85 7.00933 22.0167 7.00933 21V7C7.00933 5.98331 7.84471 5.15 8.86601 5.15ZM9.86601 21.15H18.9028C19.5379 21.15 20.0528 20.6351 20.0528 20V8C20.0528 7.36487 19.5379 6.85 18.9028 6.85H9.86601C9.23089 6.85 8.71601 7.36487 8.71601 8V20C8.71601 20.6351 9.23089 21.15 9.86601 21.15Z" fill="#BBBBBB" stroke="white" stroke-width="0.3"/>
</svg>
