<svg xmlns="http://www.w3.org/2000/svg" width="666" height="492" fill="none"><g opacity=".2"><path stroke="#000" stroke-linecap="round" stroke-linejoin="round" d="M113 165.3a79 79 0 0 0-13.3 21.4M380.6 161.6C371.3 153.4 360 147 350 147c-17.4 0-17.7 9.2-34.6 9.2-26 0-45.4-43.6-95.6-43.6-23.3 0-49.8 9.6-72.2 23.7"/><path stroke="#000" stroke-linecap="round" stroke-linejoin="round" d="M495 137.6a73 73 0 0 0-39.9-12c-60.7 0-90.8 69.7-130.5 69.7-36.5 0-39.3-18.4-84.5-18.4-19.6 0-53 16.7-73 39.3M332.7 286.5a14 14 0 0 1-.3-3.7c.2-3.9 1.8-7 3.5-6.9a2 2 0 0 1 1.4 1"/><path stroke="#000" stroke-linecap="round" stroke-miterlimit="10" d="M328.2 317.7c.4-5.1 2.7-25 4.7-32"/><path fill="#000" d="M299.7 358v117h9.7l11.1-62.6s1.6-33.9-20.8-54.4z"/><path fill="#000" d="M331.6 355.7c.3 3.4 3.6 64.7 3.6 64.7v55.9l-9.9 1L319 418l-19.2-60a80.4 80.4 0 0 1 31.9-2.3z"/><path stroke="#000" stroke-linecap="round" stroke-miterlimit="10" d="M331 330c2 12.2 1.7 24.3.6 25.7-2.2 3-29.4 4.9-31.9 2.3-2.2-2.4-8.2-44.3 8.2-52.4M315.3 304.4c5.8.7 9.8 6.2 12.4 13.2M336.3 288c-.6-1.7-.9-3.4-.7-5.2.2-3.9 1.7-7 3.5-6.9 1.7.1 3 3.3 2.8 7.2 0 1.7-.5 3.4-1.2 4.9"/><path fill="#000" d="M327.4 283.7l-2.3.3.4 2.3 2.3-.4-.4-2.2z"/><path stroke="#000" stroke-linecap="round" stroke-linejoin="round" d="M315.3 300v4.3M313.8 309.5c-2.1.5-6 .3-6-1v-15.9"/><path stroke="#000" stroke-linecap="round" stroke-miterlimit="10" d="M321.8 281.8c.7 2 1.1 4 1 6.2 0 6.6-3.4 12-7.7 12-1.4 0-2.7-.6-3.7-1.5"/><path stroke="#000" stroke-linecap="round" stroke-linejoin="round" d="M308.7 292.5a2.6 2.6 0 0 1-2.8-1 2.6 2.6 0 0 1 3.4-3.7"/><path fill="#000" d="M296.8 313.5a7.5 7.5 0 0 0-15.1 0v35.7a7.5 7.5 0 0 0 15 0v-35.7z"/><path stroke="#000" stroke-linecap="round" stroke-miterlimit="10" d="M318.9 329.3c-1.6 9.2-9 16.2-18 16.2-10 0-18.2-8.8-18.2-19.7 0-11 8.2-19.8 18.2-19.8a17.7 17.7 0 0 1 14.1 7.2"/><path stroke="#000" stroke-linecap="round" stroke-linejoin="round" d="M322.6 317.2c3 .2 7.6.6 9.8 1.4.2-1.6 1.6-23.3 3.9-30.6"/><path stroke="#000" stroke-linecap="round" stroke-linejoin="round" d="M340.8 288c0 .9 5 36.5 0 40.8-4 3.3-15.5.5-20.7-1.1"/><path stroke="#000" stroke-linecap="round" stroke-miterlimit="10" d="M303.8 315.8c1.7-6.9 17-1.1 18.4.4 1.7 2-1.3 12.5-3.6 13-3.7.8-17-4.5-14.8-13.4zM169.5 384.8h38.6L133.8 80 103.6 204M128.6 315.6L75.8 80 1.5 411.3h91"/><path stroke="#949494" stroke-linecap="round" stroke-linejoin="round" stroke-width="2.4" d="M76.2 409.9V112.2M76.2 210.4l16.1-17.6M76.2 294.4l24.2-26.4M76.2 382L88 369M76.2 210.4L60 192.8M76.2 294.4L51.9 268M76.2 382l-37.7-41M129 315.6a40.6 40.6 0 0 0-40.7 40.6v37a40.6 40.6 0 1 0 81.2 0v-37a40.6 40.6 0 0 0-40.6-40.6zM129 464.8V352.5M129 400.2c22.1 0 22.1-13.3 22.1-33.6M129 379.8c-15.5 0-15.5-9.3-15.5-23.3"/><path stroke="#000" stroke-linecap="round" stroke-linejoin="round" d="M424.5 384.8h55.1M526.8 384.8h138.6V275.5a49 49 0 0 0-48.7-48.7 49 49 0 0 0-7.9.6V101.7a33.4 33.4 0 0 0-33.4-33.4 33.4 33.4 0 0 0-33.3 33.4v26.9a49 49 0 0 0-64.4 46.2v89.6h-21.3a33.4 33.4 0 0 0-33.3 33.3v77.6c0 3.2.5 6.4 1.4 9.5"/><path stroke="#949494" stroke-linecap="round" stroke-linejoin="round" stroke-width="2.4" d="M574.1 319.5c55 0 55-24.6 55-61.8M574.1 352.3c-30.2 0-30.2-13.5-30.2-34M574.1 384.8V93.5M574.1 257.7L544 227.6M574.1 195.5l18.2-18.2"/><path stroke="#000" stroke-linecap="round" stroke-linejoin="round" d="M424.3 80a28.3 28.3 0 0 0-51.8-21.3A22.5 22.5 0 0 0 340.8 79v.9h83.5zM149.1 36A28.3 28.3 0 0 1 201 14.6a22.4 22.4 0 0 1 31.7 20.5v.9h-83.5zM582.5 460.7c-4.3-13.7-26.8-24-53.9-24-30.2 0-54.6 12.8-54.6 28.7h98M275.7 479.2c-7.6 0-13.7 5.2-13.7 11.7h27.3c0-6.5-6.1-11.7-13.6-11.7zM474 416.5c-7.6 0-13.7 7.8-13.7 17.4h27.3c0-9.6-6-17.4-13.6-17.4zM46.5 459.7c-12 0-21.7 4-21.7 8.8h43.4c0-4.9-9.7-8.8-21.7-8.8z"/><path stroke="#000" stroke-linecap="round" stroke-linejoin="round" d="M592.3 459.7c-12 0-21.7 4-21.7 8.8H614c0-4.9-9.7-8.8-21.7-8.8zM503.2 323a26.3 26.3 0 0 0-26.3 26.2v24a26.3 26.3 0 1 0 52.6 0v-24a26.3 26.3 0 0 0-26.3-26.3z"/><path stroke="#949494" stroke-linecap="round" stroke-linejoin="round" stroke-width="2.4" d="M503.2 419.5v-72.7M503.2 377.7c14.4 0 14.4-8.6 14.4-21.7M503.2 364.5c-10 0-10-6-10-15.1M173 443.6h48.7M375 411.3h32.3M350.7 419.5H383M44.1 426.2h32.3M423.1 474.5h45.4"/><path stroke="#000" stroke-linecap="round" stroke-miterlimit="10" d="M305.4 286.2c-1.3-1-1.4-8.4 1.7-11 3.2-2.5 12.4-4.5 16.4-7.9M320.8 274a34 34 0 0 0 4.3-6.4M323.5 275.7c1-1.4 1.7-3 2.1-4.8"/><path fill="#000" d="M341.9 283.1c0 .8-.2 1.6-.4 2.4l5-.4-1.4-7.9-3.8 1.2c.5 1.5.7 3.1.6 4.7zM335.6 282.8l.3-2.7-9 2.9.6 3.7 8.3-.7c-.2-1-.3-2.1-.2-3.2z"/><path stroke="#000" stroke-linecap="round" stroke-linejoin="round" d="M300.6 475v13.5H320L306 480v-5.4M327.3 475v13.5h19.4l-13.9-8.6v-5.4"/><path stroke="#000" stroke-linecap="round" stroke-miterlimit="10" d="M318.4 286.2c0 .7.4 3 1.9 4M316.3 292.2a2 2 0 0 0 2 1.2"/></g></svg>