<svg width="666" height="492" viewBox="0 0 666 492" fill="none" xmlns="http://www.w3.org/2000/svg">
<g opacity="0.2">
<path d="M113.056 165.286C107.116 172.294 102.508 179.524 99.6699 186.664" stroke="black" stroke-linecap="round" stroke-linejoin="round"/>
<path d="M380.65 161.626C371.302 153.364 360.016 146.95 349.858 146.95C332.5 146.95 332.218 156.13 315.304 156.13C289.228 156.13 269.878 112.534 219.73 112.534C196.39 112.534 169.93 122.104 147.514 136.162" stroke="black" stroke-linecap="round" stroke-linejoin="round"/>
<path d="M494.908 137.62C483.508 130.318 470.194 125.62 455.128 125.62C394.366 125.62 364.348 195.346 324.58 195.346C288.13 195.346 285.256 176.89 240.136 176.89C220.534 176.89 187.108 193.636 167.008 216.226" stroke="black" stroke-linecap="round" stroke-linejoin="round"/>
<path d="M332.686 286.468C332.435 285.271 332.342 284.047 332.41 282.826C332.596 278.944 334.156 275.86 335.896 275.944C336.183 275.978 336.459 276.074 336.705 276.227C336.951 276.379 337.16 276.584 337.318 276.826" stroke="black" stroke-linecap="round" stroke-linejoin="round"/>
<path d="M328.168 317.668C328.576 312.598 330.94 292.636 332.866 285.778" stroke="black" stroke-miterlimit="10" stroke-linecap="round"/>
<path d="M299.722 358V474.928H309.4L320.524 412.372C320.524 412.372 322.054 378.532 299.722 358Z" fill="black"/>
<path d="M331.6 355.696C331.87 359.068 335.236 420.424 335.236 420.424V476.29L325.306 477.352L318.922 417.952L299.722 358C302.626 356.404 323.896 353.398 331.6 355.696Z" fill="black"/>
<path d="M331 330.076C333.094 342.184 332.74 354.286 331.642 355.696C329.368 358.618 302.242 360.598 299.746 357.994C297.49 355.636 291.49 313.696 307.882 305.62" stroke="black" stroke-miterlimit="10" stroke-linecap="round"/>
<path d="M315.304 304.372C321.088 305.128 325.066 310.552 327.73 317.614" stroke="black" stroke-miterlimit="10" stroke-linecap="round"/>
<path d="M336.316 287.992C335.704 286.342 335.45 284.581 335.572 282.826C335.758 278.944 337.318 275.86 339.058 275.944C340.798 276.028 342.058 279.244 341.86 283.144C341.812 284.819 341.431 286.467 340.738 287.992" stroke="black" stroke-miterlimit="10" stroke-linecap="round"/>
<path d="M327.434 283.659L325.146 284.018L325.505 286.306L327.793 285.947L327.434 283.659Z" fill="black"/>
<path d="M315.304 299.932V304.282" stroke="black" stroke-linecap="round" stroke-linejoin="round"/>
<path d="M313.834 309.514C311.662 310.048 307.834 309.772 307.834 308.5V292.6" stroke="black" stroke-linecap="round" stroke-linejoin="round"/>
<path d="M321.754 281.8C322.522 283.777 322.909 285.883 322.894 288.004C322.894 294.604 319.396 299.944 315.094 299.944C313.737 299.919 312.432 299.42 311.404 298.534" stroke="black" stroke-miterlimit="10" stroke-linecap="round"/>
<path d="M308.728 292.492C308.492 292.56 308.247 292.594 308.002 292.594C307.602 292.595 307.208 292.503 306.849 292.327C306.49 292.15 306.177 291.893 305.934 291.576C305.691 291.259 305.524 290.89 305.447 290.497C305.37 290.105 305.385 289.701 305.489 289.315C305.594 288.929 305.787 288.573 306.052 288.273C306.317 287.974 306.647 287.74 307.017 287.59C307.388 287.439 307.788 287.376 308.186 287.405C308.585 287.434 308.972 287.555 309.316 287.758" stroke="black" stroke-linecap="round" stroke-linejoin="round"/>
<path d="M296.77 313.546C296.77 309.381 293.393 306.004 289.228 306.004C285.063 306.004 281.686 309.381 281.686 313.546V349.228C281.686 353.393 285.063 356.77 289.228 356.77C293.393 356.77 296.77 353.393 296.77 349.228V313.546Z" fill="black"/>
<path d="M318.862 329.302C317.314 338.506 309.862 345.502 300.934 345.502C290.866 345.502 282.706 336.664 282.706 325.768C282.706 314.872 290.866 306.028 300.934 306.028C303.676 306.057 306.373 306.722 308.814 307.972C311.255 309.221 313.372 311.021 314.998 313.228" stroke="black" stroke-miterlimit="10" stroke-linecap="round"/>
<path d="M322.6 317.2C325.564 317.356 330.16 317.752 332.398 318.556C332.638 317.038 333.994 295.294 336.304 288.01" stroke="black" stroke-linecap="round" stroke-linejoin="round"/>
<path d="M340.768 287.992C340.768 288.856 345.874 324.52 340.768 328.75C336.766 332.062 325.258 329.296 320.128 327.682" stroke="black" stroke-linecap="round" stroke-linejoin="round"/>
<path d="M303.796 315.814C305.488 308.926 320.812 314.656 322.198 316.228C323.86 318.112 320.89 328.732 318.598 329.224C314.86 330.034 301.6 324.748 303.796 315.814Z" stroke="black" stroke-miterlimit="10" stroke-linecap="round"/>
<path d="M169.528 384.808H208.078L133.828 79.99L103.588 204.142" stroke="black" stroke-miterlimit="10" stroke-linecap="round"/>
<path d="M128.566 315.604L75.772 79.99L1.52197 411.34H92.56" stroke="black" stroke-miterlimit="10" stroke-linecap="round"/>
<path d="M76.1741 409.864V112.216" stroke="#949494" stroke-width="2.39" stroke-linecap="round" stroke-linejoin="round"/>
<path d="M76.1741 210.37L92.3081 192.832" stroke="#949494" stroke-width="2.39" stroke-linecap="round" stroke-linejoin="round"/>
<path d="M76.1741 294.364L100.42 268.012" stroke="#949494" stroke-width="2.39" stroke-linecap="round" stroke-linejoin="round"/>
<path d="M76.1741 381.988L88.0061 369.13" stroke="#949494" stroke-width="2.39" stroke-linecap="round" stroke-linejoin="round"/>
<path d="M76.174 210.37L60.04 192.832" stroke="#949494" stroke-width="2.39" stroke-linecap="round" stroke-linejoin="round"/>
<path d="M76.1741 294.364L51.9341 268.012" stroke="#949494" stroke-width="2.39" stroke-linecap="round" stroke-linejoin="round"/>
<path d="M76.1741 381.988L38.4641 340.996" stroke="#949494" stroke-width="2.39" stroke-linecap="round" stroke-linejoin="round"/>
<path d="M128.92 315.604H128.914C106.484 315.604 88.3 333.788 88.3 356.218V393.286C88.3 415.717 106.484 433.9 128.914 433.9H128.92C151.351 433.9 169.534 415.717 169.534 393.286V356.218C169.534 333.788 151.351 315.604 128.92 315.604Z" stroke="#949494" stroke-width="2.39" stroke-linecap="round" stroke-linejoin="round"/>
<path d="M128.914 464.764V352.51" stroke="#949494" stroke-width="2.39" stroke-linecap="round" stroke-linejoin="round"/>
<path d="M128.914 400.246C151.114 400.246 151.114 386.878 151.114 366.646" stroke="#949494" stroke-width="2.39" stroke-linecap="round" stroke-linejoin="round"/>
<path d="M128.914 379.798C113.524 379.798 113.524 370.516 113.524 356.494" stroke="#949494" stroke-width="2.39" stroke-linecap="round" stroke-linejoin="round"/>
<path d="M424.522 384.808H479.638" stroke="black" stroke-linecap="round" stroke-linejoin="round"/>
<path d="M526.828 384.808H665.428V275.542C665.39 262.62 660.24 250.237 651.102 241.1C641.965 231.962 629.582 226.812 616.66 226.774V226.774C614.033 226.775 611.411 226.988 608.818 227.41V101.668C608.818 92.8151 605.302 84.3246 599.042 78.0641C592.783 71.8035 584.293 68.2856 575.44 68.284V68.284C566.586 68.284 558.095 71.8012 551.834 78.062C545.573 84.3227 542.056 92.814 542.056 101.668V128.584C537.033 126.872 531.763 125.999 526.456 125.998V125.998C513.532 126.036 501.149 131.187 492.012 140.326C482.874 149.465 477.724 161.849 477.688 174.772V264.4H456.448C447.62 264.427 439.161 267.946 432.918 274.188C426.676 280.431 423.157 288.89 423.13 297.718V375.316C423.131 378.531 423.6 381.728 424.522 384.808" stroke="black" stroke-linecap="round" stroke-linejoin="round"/>
<path d="M574.096 319.51C629.062 319.51 629.062 294.91 629.062 257.71" stroke="#949494" stroke-width="2.39" stroke-linecap="round" stroke-linejoin="round"/>
<path d="M574.15 352.288C543.91 352.288 543.91 338.752 543.91 318.286" stroke="#949494" stroke-width="2.39" stroke-linecap="round" stroke-linejoin="round"/>
<path d="M574.096 384.808V93.502" stroke="#949494" stroke-width="2.39" stroke-linecap="round" stroke-linejoin="round"/>
<path d="M574.096 257.71L543.964 227.572" stroke="#949494" stroke-width="2.39" stroke-linecap="round" stroke-linejoin="round"/>
<path d="M574.096 195.526L592.33 177.298" stroke="#949494" stroke-width="2.39" stroke-linecap="round" stroke-linejoin="round"/>
<path d="M424.294 79.99C425.905 73.4135 425.104 66.4776 422.039 60.4405C418.974 54.4034 413.846 49.6649 407.586 47.0848C401.326 44.5046 394.349 44.2536 387.92 46.3773C381.49 48.501 376.035 52.8587 372.544 58.66C369.124 57.115 365.371 56.4516 361.629 56.7305C357.887 57.0094 354.274 58.2217 351.121 60.2566C347.967 62.2915 345.374 65.0841 343.579 68.3793C341.783 71.6745 340.841 75.3672 340.84 79.12C340.84 79.414 340.84 79.72 340.84 79.99H424.294Z" stroke="black" stroke-linecap="round" stroke-linejoin="round"/>
<path d="M149.146 35.968C147.535 29.3915 148.336 22.4556 151.401 16.4185C154.466 10.3814 159.594 5.64292 165.854 3.06275C172.114 0.482571 179.091 0.231578 185.521 2.35529C191.95 4.479 197.405 8.83674 200.896 14.638C204.316 13.088 208.069 12.4208 211.814 12.6975C215.558 12.9742 219.173 14.186 222.328 16.2218C225.482 18.2576 228.076 21.0525 229.87 24.3503C231.665 27.6481 232.604 31.3435 232.6 35.098C232.6 35.386 232.6 35.698 232.6 35.968H149.146Z" stroke="black" stroke-linecap="round" stroke-linejoin="round"/>
<path d="M582.484 460.69C578.206 447.046 555.706 436.636 528.598 436.636C498.43 436.636 473.998 449.518 473.998 465.436H572.002" stroke="black" stroke-linecap="round" stroke-linejoin="round"/>
<path d="M275.656 479.158C268.126 479.158 262.018 484.414 262.018 490.9H289.3C289.3 484.414 283.192 479.158 275.656 479.158Z" stroke="black" stroke-linecap="round" stroke-linejoin="round"/>
<path d="M473.98 416.464C466.444 416.464 460.342 424.264 460.342 433.9H487.6C487.6 424.27 481.51 416.464 473.98 416.464Z" stroke="black" stroke-linecap="round" stroke-linejoin="round"/>
<path d="M46.5219 459.742C34.5219 459.742 24.8259 463.648 24.8259 468.46H68.1999C68.1999 463.648 58.5039 459.742 46.5219 459.742Z" stroke="black" stroke-linecap="round" stroke-linejoin="round"/>
<path d="M592.33 459.742C580.33 459.742 570.634 463.648 570.634 468.46H614.02C614.02 463.648 604.312 459.742 592.33 459.742Z" stroke="black" stroke-linecap="round" stroke-linejoin="round"/>
<path d="M503.236 322.93H503.23C488.706 322.93 476.932 334.704 476.932 349.228V373.228C476.932 387.752 488.706 399.526 503.23 399.526H503.236C517.76 399.526 529.534 387.752 529.534 373.228V349.228C529.534 334.704 517.76 322.93 503.236 322.93Z" stroke="black" stroke-linecap="round" stroke-linejoin="round"/>
<path d="M503.236 419.518V346.828" stroke="#949494" stroke-width="2.39" stroke-linecap="round" stroke-linejoin="round"/>
<path d="M503.236 377.74C517.6 377.74 517.6 369.082 517.6 355.984" stroke="#949494" stroke-width="2.39" stroke-linecap="round" stroke-linejoin="round"/>
<path d="M503.236 364.498C493.27 364.498 493.27 358.498 493.27 349.402" stroke="#949494" stroke-width="2.39" stroke-linecap="round" stroke-linejoin="round"/>
<path d="M173.026 443.59H221.65" stroke="#949494" stroke-width="2.39" stroke-linecap="round" stroke-linejoin="round"/>
<path d="M375.04 411.34H407.284" stroke="#949494" stroke-width="2.39" stroke-linecap="round" stroke-linejoin="round"/>
<path d="M350.722 419.518H382.972" stroke="#949494" stroke-width="2.39" stroke-linecap="round" stroke-linejoin="round"/>
<path d="M44.1279 426.184H76.3779" stroke="#949494" stroke-width="2.39" stroke-linecap="round" stroke-linejoin="round"/>
<path d="M423.13 474.544H468.46" stroke="#949494" stroke-width="2.39" stroke-linecap="round" stroke-linejoin="round"/>
<path d="M305.374 286.162C304.126 285.154 303.982 277.762 307.132 275.236C310.282 272.71 319.492 270.736 323.488 267.298" stroke="black" stroke-miterlimit="10" stroke-linecap="round"/>
<path d="M320.8 274.078C321.718 273.292 324.604 268.792 325.09 267.58" stroke="black" stroke-miterlimit="10" stroke-linecap="round"/>
<path d="M323.53 275.728C324.536 274.283 325.242 272.651 325.606 270.928" stroke="black" stroke-miterlimit="10" stroke-linecap="round"/>
<path d="M341.86 283.132C341.821 283.939 341.716 284.742 341.548 285.532L346.42 285.13L345.112 277.216L341.296 278.416C341.769 279.941 341.96 281.539 341.86 283.132V283.132Z" fill="black"/>
<path d="M335.572 282.826C335.616 281.919 335.741 281.017 335.944 280.132L326.944 282.976L327.544 286.708L335.752 286.03C335.573 284.972 335.513 283.897 335.572 282.826V282.826Z" fill="black"/>
<path d="M300.58 474.928V488.524H319.966L306.124 479.908V474.478" stroke="black" stroke-linecap="round" stroke-linejoin="round"/>
<path d="M327.268 474.928V488.524H346.654L332.806 479.908V474.478" stroke="black" stroke-linecap="round" stroke-linejoin="round"/>
<path d="M318.442 286.162C318.442 286.876 318.766 289.114 320.296 290.26" stroke="black" stroke-miterlimit="10" stroke-linecap="round"/>
<path d="M316.324 292.234C316.504 292.576 316.776 292.861 317.108 293.058C317.441 293.255 317.822 293.356 318.208 293.35" stroke="black" stroke-miterlimit="10" stroke-linecap="round"/>
</g>
</svg>
