<svg width="25" height="24" viewBox="0 0 25 24" fill="none" xmlns="http://www.w3.org/2000/svg">
<path d="M7.80823 14.8938L7.76433 14.85H7.70234H4.69231C4.22284 14.85 3.83896 14.4667 3.83896 14V10C3.83896 9.53332 4.22284 9.15 4.69231 9.15H7.70234H7.76446L7.80839 9.10608L11.1092 5.80624C11.1093 5.8062 11.1093 5.80616 11.1094 5.80611C11.6472 5.2703 12.5691 5.65394 12.5691 6.41V17.58C12.5691 18.3361 11.647 18.7198 11.1092 18.1838L7.80823 14.8938ZM15.382 18.6399L15.3832 18.6394C18.027 17.5874 19.8925 15.0035 19.8925 12C19.8925 8.99652 18.027 6.41262 15.3833 5.36067C15.0823 5.24065 14.8758 4.96149 14.8758 4.65V4.45C14.8758 3.92002 15.4065 3.55053 15.8847 3.73951L15.8866 3.74025C19.2318 5.00896 21.5992 8.22458 21.5992 12C21.5992 15.7754 19.2319 18.9909 15.8868 20.2597C15.4047 20.442 14.8758 20.0769 14.8758 19.55V19.35C14.8758 19.0366 15.074 18.7592 15.382 18.6399ZM17.0841 12C17.0841 13.6231 16.1938 15.029 14.8758 15.7715V8.21998C16.1941 8.9712 17.0841 10.3773 17.0841 12Z" fill="#BBBBBB" stroke="white" stroke-width="0.3"/>
</svg>
