<svg width="241" height="32" viewBox="0 0 241 32" fill="none" xmlns="http://www.w3.org/2000/svg">
<path d="M84.3065 2.3562L76.4426 31.6706H71.6667L66.2731 13.8843L60.8796 31.6706H56.1037L48.281 2.3562H54.2509L58.7799 20.8424L63.2676 5.56761C63.7617 3.28943 64.8047 2.15034 66.3967 2.15034C67.1927 2.15034 67.7965 2.45227 68.2082 3.05612C68.6199 3.63253 68.9905 4.46969 69.3199 5.56761L73.7664 20.8424L78.3365 2.3562H84.3065Z" fill="#333333"/>
<path d="M104.881 31.6706H99.5285V16.9311C99.5285 14.4059 98.5404 13.1432 96.5641 13.1432L91.4588 15.1607V31.6706H86.1064V0.70932H91.4588V10.9611L98.2522 7.91441C100.668 7.91441 102.369 8.60061 103.357 9.97301C104.373 11.3454 104.881 13.2668 104.881 15.7371V31.6706Z" fill="#333333"/>
<path d="M125.522 31.6706H121.94L120.293 28.8298L114.57 31.9177C111.386 31.9177 109.245 30.7648 108.147 28.4592C107.598 27.3338 107.214 26.1261 106.994 24.8361C106.802 23.5186 106.706 22.1599 106.706 20.7601C106.706 19.3328 106.72 18.2897 106.747 17.631C106.775 16.9448 106.843 16.1625 106.953 15.2842C107.063 14.3784 107.214 13.6236 107.406 13.0197C107.626 12.4159 107.928 11.7983 108.312 11.167C108.696 10.5082 109.163 9.98673 109.712 9.60246C110.947 8.75157 112.553 8.32613 114.529 8.32613H120.169L125.522 7.99675V31.6706ZM120.169 24.1773V13.1432H116.093C114.584 13.1432 113.527 13.7197 112.923 14.8725C112.347 16.0253 112.059 17.7545 112.059 20.0601C112.059 22.3383 112.333 23.944 112.882 24.8772C113.458 25.8105 114.529 26.2771 116.093 26.2771L120.169 24.1773Z" fill="#333333"/>
<path d="M140.557 31.6706H137.222C135.191 31.6706 133.64 31.0668 132.57 29.8591C131.527 28.6513 131.005 27.2103 131.005 25.536V13.1844H128.741V9.1084H131.005V4.49714H136.357V9.1084H140.145V13.1844H136.357V25.2066C136.357 26.4967 136.975 27.1417 138.21 27.1417H140.557V31.6706Z" fill="#333333"/>
<path d="M160.301 25.1655V25.783C160.137 27.8416 159.258 29.3924 157.666 30.4355C156.102 31.4785 154.139 32 151.779 32C148.293 32 145.85 31.3687 144.45 30.1061C143.16 28.9533 142.515 27.2515 142.515 25.0008V24.5067H147.373C147.373 25.7693 147.703 26.6339 148.362 27.1005C149.02 27.5672 150.159 27.8005 151.779 27.8005C153.975 27.8005 155.073 27.0045 155.073 25.4125C155.073 24.095 154.688 23.2166 153.92 22.7775C153.563 22.5579 153.11 22.3932 152.561 22.2834L148.403 21.5835C144.78 21.0071 142.968 18.7426 142.968 14.7901C142.968 12.5943 143.764 10.8925 145.356 9.6848C146.975 8.44964 149.02 7.83207 151.491 7.83207C157.118 7.83207 159.931 10.2612 159.931 15.1195V15.6547H155.279C155.224 14.3647 154.881 13.4863 154.249 13.0197C153.618 12.5531 152.726 12.3198 151.573 12.3198C150.448 12.3198 149.597 12.5531 149.02 13.0197C148.444 13.4589 148.156 13.953 148.156 14.5019C148.156 16.0665 148.787 16.9585 150.05 17.1781L155.031 18.0839C158.545 18.7426 160.301 21.1032 160.301 25.1655Z" fill="#333333"/>
<path d="M183.439 7.46152H175.575V31.6706H169.852V7.46152H162.03V2.3562H183.439V7.46152Z" fill="#333333"/>
<path d="M204.819 31.6706H199.467V16.9311C199.467 14.4059 198.479 13.1432 196.503 13.1432L191.397 15.1607V31.6706H186.045V0.70932H191.397V10.9611L198.191 7.91441C200.606 7.91441 202.308 8.60061 203.296 9.97301C204.312 11.3454 204.819 13.2668 204.819 15.7371V31.6706Z" fill="#333333"/>
<path d="M225.46 31.6706H221.878L220.231 28.8298L214.509 31.9177C211.325 31.9177 209.184 30.7648 208.086 28.4592C207.537 27.3338 207.152 26.1261 206.933 24.8361C206.741 23.5186 206.645 22.1599 206.645 20.7601C206.645 19.3328 206.658 18.2897 206.686 17.631C206.713 16.9448 206.782 16.1625 206.892 15.2842C207.002 14.3784 207.152 13.6236 207.345 13.0197C207.564 12.4159 207.866 11.7983 208.25 11.167C208.635 10.5082 209.101 9.98673 209.65 9.60246C210.885 8.75157 212.491 8.32613 214.467 8.32613H220.108L225.46 7.99675V31.6706ZM220.108 24.1773V13.1432H216.032C214.522 13.1432 213.466 13.7197 212.862 14.8725C212.285 16.0253 211.997 17.7545 211.997 20.0601C211.997 22.3383 212.272 23.944 212.82 24.8772C213.397 25.8105 214.467 26.2771 216.032 26.2771L220.108 24.1773Z" fill="#333333"/>
<path d="M240.495 31.6706H237.16C235.129 31.6706 233.579 31.0668 232.508 29.8591C231.465 28.6513 230.944 27.2103 230.944 25.536V13.1844H228.679V9.1084H230.944V4.49714H236.296V9.1084H240.084V13.1844H236.296V25.2066C236.296 26.4967 236.913 27.1417 238.149 27.1417H240.495V31.6706Z" fill="#333333"/>
<path fill-rule="evenodd" clip-rule="evenodd" d="M26.4783 15.5266C24.9857 17.0295 23.5 18.539 21.9524 19.9868C21.6229 20.2951 21.1228 20.3409 20.7901 20.036C20.5165 19.7854 20.2606 19.509 19.9991 19.2477C19.134 18.3833 18.2619 17.5106 17.3755 16.6242C16.0646 15.3122 14.7854 14.0871 13.4131 12.7149C12.7708 12.0725 12.1328 11.4614 11.4319 10.7605C11.2536 10.5821 10.817 10.2549 10.8164 10.0651C10.8153 9.84952 11.2541 9.54695 11.4051 9.39539C12.0573 8.74375 12.634 8.15995 13.2791 7.49408C15.4611 5.35093 17.7438 3.19137 19.9192 0.934961C20.2267 0.616526 20.5413 0.242829 20.8832 0.025067C21.1048 -0.116642 21.5332 0.380708 21.7133 0.560717C24.1234 2.97087 26.4312 5.44559 28.9421 7.76273C29.545 8.31917 30.2623 9.03428 30.8691 9.77073C31.0343 9.96989 31.4781 10.296 31.4852 10.4399C31.4939 10.6215 31.0365 10.9602 30.8965 11.1358C30.3313 11.8444 29.6216 12.4369 29.022 13.0372C28.2155 13.8425 27.3833 14.6955 26.4783 15.5266Z" fill="#888888"/>
<path fill-rule="evenodd" clip-rule="evenodd" d="M10.0842 11.0021C10.0901 10.9992 10.0987 10.9958 10.1052 10.9972V10.9972C10.1273 11.0019 10.1306 11.0319 10.149 11.045C10.6469 11.399 11.0583 11.8562 11.485 12.2829C14.3083 15.1056 17.1808 17.8993 20.0527 20.7701C20.2327 20.9507 20.6584 21.2735 20.6682 21.4398C20.6792 21.6341 20.2185 21.9968 20.0795 22.1358C17.7241 24.4912 15.4474 26.6874 13.092 29.0429C12.4945 29.6404 11.821 30.2608 11.1644 30.9174C11.0008 31.0804 10.6796 31.5034 10.4947 31.5061C10.2561 31.5094 9.95741 31.0487 9.79928 30.8906C9.54486 30.6367 9.32163 30.4403 9.12958 30.2477C6.56733 27.5623 3.85023 25.0323 1.25788 22.3765C1.11398 22.2129 0.854634 21.9771 0.588724 21.7336C0.454127 21.6105 0.000547715 21.2264 5.74927e-07 21.0382C-0.000546565 20.862 0.389564 20.5682 0.588724 20.3685C2.01621 18.9416 3.57447 17.4364 4.97898 16.0308C5.86206 15.1477 6.67073 14.3089 7.49582 13.5408C8.36742 12.7304 9.11645 11.82 9.98586 11.0513C9.99036 11.0473 10.0501 11.0191 10.0842 11.0021Z" fill="#444444"/>
<path fill-rule="evenodd" clip-rule="evenodd" d="M32.2075 11.426V11.426C32.236 11.4197 32.2473 11.4629 32.2702 11.481C33.2463 12.2531 34.0202 13.2071 34.9121 14.0233C35.8066 14.8423 36.6476 15.732 37.5356 16.62C38.8071 17.8915 40.187 19.1636 41.5248 20.502C41.7103 20.688 41.9105 20.9287 42.1677 21.1717C42.3575 21.3511 42.7816 21.646 42.7832 21.8414C42.7849 22.0257 42.3061 22.4208 42.1945 22.5368C40.7413 24.0458 39.2323 25.4711 37.7501 26.9544C36.9359 27.7696 36.0862 28.621 35.1801 29.4444C34.5608 30.0063 33.9376 30.6996 33.2788 31.3452C33.1284 31.4935 32.758 31.9262 32.6091 31.9345C32.4258 31.9443 32.0286 31.4874 31.8869 31.3452C31.2128 30.6722 30.5968 29.9746 29.9593 29.3372C28.116 27.495 26.5156 25.9476 24.6849 24.1164C24.1066 23.5386 23.386 22.7961 22.7037 22.1625C22.6107 22.0761 22.0991 21.6805 22.0882 21.4928C22.0756 21.2805 22.4805 21.0157 22.6769 20.8237C25.8195 17.7478 28.9423 14.631 32.0222 11.5325C32.0715 11.4829 32.1395 11.4425 32.2075 11.426V11.426Z" fill="#BBBBBB"/>
</svg>
